<?xml version="1.0" encoding="UTF-8" standalone="no"?>
<!-- Created with Inkscape (http://www.inkscape.org/) -->

<svg
   width="210mm"
   height="297mm"
   viewBox="0 0 210 297"
   version="1.1"
   id="svg2852"
   inkscape:version="1.1.1 (3bf5ae0d25, 2021-09-20, custom)"
   sodipodi:docname="conicSection.svg"
   xmlns:inkscape="http://www.inkscape.org/namespaces/inkscape"
   xmlns:sodipodi="http://sodipodi.sourceforge.net/DTD/sodipodi-0.dtd"
   xmlns="http://www.w3.org/2000/svg"
   xmlns:svg="http://www.w3.org/2000/svg">
  <sodipodi:namedview
     id="namedview2854"
     pagecolor="#ffffff"
     bordercolor="#666666"
     borderopacity="1.0"
     inkscape:pageshadow="2"
     inkscape:pageopacity="0.0"
     inkscape:pagecheckerboard="0"
     inkscape:document-units="mm"
     showgrid="false"
     inkscape:snap-bbox="true"
     inkscape:snap-bbox-midpoints="true"
     showguides="true"
     inkscape:guide-bbox="true"
     inkscape:snap-intersection-paths="true"
     inkscape:snap-smooth-nodes="false"
     inkscape:object-paths="true"
     inkscape:zoom="2.4390819"
     inkscape:cx="411.63029"
     inkscape:cy="288.4282"
     inkscape:window-width="1912"
     inkscape:window-height="1153"
     inkscape:window-x="4"
     inkscape:window-y="43"
     inkscape:window-maximized="1"
     inkscape:current-layer="layer1">
    <sodipodi:guide
       position="97.875075,224.01231"
       orientation="0,-1"
       id="guide3284" />
    <sodipodi:guide
       position="97.875073,223.94226"
       orientation="1,0"
       id="guide3286" />
  </sodipodi:namedview>
  <defs
     id="defs2849" />
  <g
     inkscape:label="Layer 1"
     inkscape:groupmode="layer"
     id="layer1">
    <path
       id="ellipse1753"
       style="overflow:visible;opacity:1;vector-effect:none;fill:none;stroke:#000000;stroke-width:0.140441;stroke-dasharray:1.05331, 1.05331;marker-start:none;marker-end:none"
       transform="rotate(-90)"
       d="m -86.125305,88.591558 c 1.494168,10e-7 2.705431,4.156295 2.70543,9.283343 0,1.832909 -0.154806,3.541749 -0.421999,4.980979"
       sodipodi:nodetypes="csc" />
    <path
       style="font-variation-settings:normal;opacity:1;vector-effect:none;fill:#feebc6;fill-opacity:0.48581;stroke:#000000;stroke-width:0.140441;stroke-linecap:butt;stroke-linejoin:miter;stroke-miterlimit:4;stroke-dasharray:none;stroke-dashoffset:0;stroke-opacity:1;-inkscape-stroke:none;marker-start:none;marker-end:none;stop-color:#000000;stop-opacity:1"
       d="m 97.875075,72.987692 -9.098149,12.600265 -0.003,0.0041 h 10e-4 c -0.121396,0.175564 -0.182673,0.354207 -0.18293,0.5333 l -3.8e-4,3.6e-5 c 3.21e-4,1.49408 4.156403,2.705209 9.283149,2.705261 1.49672,1.5e-5 2.910725,-0.103196 4.162765,-0.286538"
       id="path6343"
       sodipodi:nodetypes="ccccccsc" />
    <path
       style="font-variation-settings:normal;opacity:1;vector-effect:none;fill:none;fill-opacity:1;stroke:#000000;stroke-width:0.140441;stroke-linecap:butt;stroke-linejoin:miter;stroke-miterlimit:4;stroke-dasharray:1.05331, 1.05331;stroke-dashoffset:0;stroke-opacity:1;-inkscape-stroke:none;marker-start:none;marker-end:none;stop-color:#000000;stop-opacity:1"
       d="m 93.726909,57.499887 4.167757,15.486674"
       id="path8960" />
    <path
       id="path9112"
       style="font-variation-settings:normal;opacity:1;vector-effect:none;fill:#feebc6;fill-opacity:0.48581;stroke:#000000;stroke-width:0.140441;stroke-linecap:butt;stroke-linejoin:miter;stroke-miterlimit:4;stroke-dasharray:none;stroke-dashoffset:0;stroke-opacity:1;-inkscape-stroke:none;marker-start:none;marker-end:none;stop-color:#000000;stop-opacity:1"
       d="m 92.937222,62.213532 0.771338,-4.711257 c 1.239138,-0.182989 2.660849,-0.287425 4.166254,-0.287434 5.126946,-3.1e-5 9.283346,1.211122 9.283666,2.70526 -0.002,0.169826 -0.0593,0.339214 -0.17053,0.50592 h 0.006 L 97.875075,73.05775 m -4.939953,-10.842218 4.939999,10.772209"
       sodipodi:nodetypes="ccscccccc" />
    <path
       id="path9114"
       style="font-variation-settings:normal;opacity:1;vector-effect:none;fill:#fdd994;fill-opacity:0.48581004;stroke:#000000;stroke-width:0.140441;stroke-linecap:butt;stroke-linejoin:miter;stroke-miterlimit:4;stroke-dasharray:none;stroke-dashoffset:0;stroke-opacity:1;-inkscape-stroke:none;marker-start:none;marker-end:none;stop-color:#000000;stop-opacity:1"
       d="m 97.894666,72.986561 4.185154,15.551321 m -4.204748,-15.550191 4.984418,10.868967 -0.77967,4.681224"
       sodipodi:nodetypes="ccccc" />
    <g
       id="g9220"
       transform="translate(44.718132,-25.90062)">
      <path
         id="path9196"
         style="color:#000000;overflow:visible;opacity:1;vector-effect:none;fill:none;fill-opacity:1;stroke:#000000;stroke-width:0.140441;stroke-linecap:butt;stroke-linejoin:miter;stroke-miterlimit:4;stroke-dasharray:1.05331, 1.05331;stroke-dashoffset:0;stroke-opacity:1;marker-start:none;marker-end:none"
         sodipodi:type="arc"
         sodipodi:cx="-86.125305"
         sodipodi:cy="97.874901"
         sodipodi:rx="2.7054303"
         sodipodi:ry="9.2833433"
         sodipodi:start="4.712389"
         sodipodi:end="1.5707963"
         sodipodi:open="true"
         sodipodi:arc-type="arc"
         d="m -86.125305,88.591558 a 2.7054303,9.2833433 0 0 1 2.70543,9.283343 2.7054303,9.2833433 0 0 1 -2.70543,9.283339"
         transform="rotate(-90)" />
      <path
         id="path9198"
         d="m 88.591616,59.920051 a 9.2833432,2.7054302 0 0 1 9.283149,-2.70526 9.2833432,2.7054302 0 0 1 9.283665,2.70526 9.2833432,2.7054302 0 0 1 -0.17053,0.50592 h 0.006 l -9.118825,12.631779 -9.098149,-12.600259 -0.003,-0.004 h 10e-4 a 9.2833432,2.7054302 0 0 1 -0.18293,-0.5333 z"
         style="color:#000000;overflow:visible;vector-effect:none;fill:#feebc6;fill-opacity:0.48581;stroke:#000000;stroke-width:0.140441;stroke-linecap:butt;stroke-linejoin:miter;stroke-miterlimit:4;stroke-dasharray:none;stroke-dashoffset:0;stroke-opacity:1;marker-start:none;marker-end:none"
         inkscape:connector-curvature="0" />
      <path
         sodipodi:open="true"
         sodipodi:end="1.5707963"
         sodipodi:start="4.712389"
         sodipodi:ry="9.2833433"
         sodipodi:rx="2.7054303"
         sodipodi:cy="97.874901"
         sodipodi:cx="59.920155"
         sodipodi:type="arc"
         style="color:#000000;overflow:visible;opacity:1;vector-effect:none;fill:none;fill-opacity:1;stroke:#000000;stroke-width:0.140441;stroke-linecap:butt;stroke-linejoin:miter;stroke-miterlimit:4;stroke-dasharray:none;stroke-dashoffset:0;stroke-opacity:1;marker-start:none;marker-end:none"
         id="path9200"
         transform="matrix(0,1,1,0,0,0)"
         sodipodi:arc-type="arc"
         d="m 59.920155,88.591558 a 2.7054303,9.2833433 0 0 1 2.70543,9.283343 2.7054303,9.2833433 0 0 1 -2.70543,9.283339" />
      <path
         style="font-variation-settings:normal;opacity:1;vector-effect:none;fill:#feebc6;fill-opacity:0.48581;stroke:#000000;stroke-width:0.140441;stroke-linecap:butt;stroke-linejoin:miter;stroke-miterlimit:4;stroke-dasharray:none;stroke-dashoffset:0;stroke-opacity:1;-inkscape-stroke:none;marker-start:none;marker-end:none;stop-color:#000000;stop-opacity:1"
         d="m 88.591616,86.125393 c 3.21e-4,1.49408 4.156403,2.70523 9.283149,2.705261 5.126945,5.2e-5 9.283345,-1.211123 9.283665,-2.705261 -0.002,-0.169824 -0.0593,-0.33921 -0.17053,-0.505914 h 0.006 l -9.118825,-12.631787 -9.098149,12.600265 -0.003,0.0041 h 10e-4 c -0.121396,0.175564 -0.182673,0.354207 -0.18293,0.5333 z"
         id="path9202"
         sodipodi:nodetypes="csccccccccc" />
      <path
         style="font-variation-settings:normal;opacity:1;vector-effect:none;fill:#feebc6;fill-opacity:0.48581;stroke:#000000;stroke-width:0.140441;stroke-linecap:butt;stroke-linejoin:miter;stroke-miterlimit:4;stroke-dasharray:none;stroke-dashoffset:0;stroke-opacity:1;-inkscape-stroke:none;marker-start:none;marker-end:none;stop-color:#000000;stop-opacity:1"
         d="m 92.935073,62.215482 4.939999,10.772209 4.991238,10.883941"
         id="path9204"
         sodipodi:nodetypes="ccc" />
      <path
         style="font-variation-settings:normal;opacity:1;vector-effect:none;fill:#feebc6;fill-opacity:0.48581;stroke:#000000;stroke-width:0.140441;stroke-linecap:butt;stroke-linejoin:miter;stroke-miterlimit:4;stroke-dasharray:none;stroke-dashoffset:0;stroke-opacity:1;-inkscape-stroke:none;marker-start:none;marker-end:none;stop-color:#000000;stop-opacity:1"
         d="m 93.726909,57.499887 8.352911,31.037995"
         id="path9206" />
      <path
         style="fill:none;stroke:#000000;stroke-width:0.264583px;stroke-linecap:butt;stroke-linejoin:miter;stroke-opacity:1"
         d="m 93.726798,57.499903 -0.791726,4.715579"
         id="path9208" />
      <path
         style="fill:none;stroke:#000000;stroke-width:0.264583px;stroke-linecap:butt;stroke-linejoin:miter;stroke-opacity:1"
         d="m 102.85268,83.841684 -0.77286,4.696198"
         id="path9210" />
    </g>
    <path
       style="font-variation-settings:normal;opacity:1;vector-effect:none;fill:none;fill-opacity:0.48581;stroke:#000000;stroke-width:0.140441;stroke-linecap:butt;stroke-linejoin:miter;stroke-miterlimit:4;stroke-dasharray:none;stroke-dashoffset:0;stroke-opacity:1;-inkscape-stroke:none;marker-start:none;marker-end:none;stop-color:#000000;stop-opacity:1"
       d="m 92.937222,62.213532 c 1.431844,0.260052 3.124017,0.411596 4.937663,0.411596 5.127045,0 9.283335,-1.21107 9.283335,-2.704999"
       id="path14718" />
  </g>
</svg>
