<?xml version="1.0" encoding="UTF-8" standalone="no"?>
<!-- Created with Inkscape (http://www.inkscape.org/) -->

<svg
   width="210mm"
   height="297mm"
   viewBox="0 0 210 297"
   version="1.1"
   id="svg17795"
   inkscape:version="1.1.1 (3bf5ae0d25, 2021-09-20, custom)"
   sodipodi:docname="sketchTemplateShapes.svg"
   xmlns:inkscape="http://www.inkscape.org/namespaces/inkscape"
   xmlns:sodipodi="http://sodipodi.sourceforge.net/DTD/sodipodi-0.dtd"
   xmlns="http://www.w3.org/2000/svg"
   xmlns:svg="http://www.w3.org/2000/svg">
  <sodipodi:namedview
     id="namedview17797"
     pagecolor="#ffffff"
     bordercolor="#666666"
     borderopacity="1.0"
     inkscape:pageshadow="2"
     inkscape:pageopacity="0.0"
     inkscape:pagecheckerboard="0"
     inkscape:document-units="mm"
     showgrid="false"
     inkscape:zoom="0.21558642"
     inkscape:cx="1312.6986"
     inkscape:cy="1342.849"
     inkscape:window-width="1912"
     inkscape:window-height="1153"
     inkscape:window-x="4"
     inkscape:window-y="43"
     inkscape:window-maximized="1"
     inkscape:current-layer="layer1" />
  <defs
     id="defs17792" />
  <g
     inkscape:label="Layer 1"
     inkscape:groupmode="layer"
     id="layer1">
    <ellipse
       style="color:#000000;overflow:visible;vector-effect:none;fill:#feebc6;fill-opacity:0.48581;stroke:#000000;stroke-width:0.140441;stroke-linecap:butt;stroke-linejoin:miter;stroke-miterlimit:4;stroke-dasharray:none;stroke-dashoffset:0;stroke-opacity:1;marker-start:none;marker-end:none"
       id="path1631"
       cx="42.460564"
       cy="115.68984"
       rx="4.4281449"
       ry="15.051776" />
    <ellipse
       ry="9.2833433"
       rx="2.7054303"
       cy="115.68984"
       cx="42.460564"
       id="ellipse1633"
       style="color:#000000;overflow:visible;vector-effect:none;fill:#feebc6;fill-opacity:0.48581;stroke:#000000;stroke-width:0.140441;stroke-linecap:butt;stroke-linejoin:miter;stroke-miterlimit:4;stroke-dasharray:none;stroke-dashoffset:0;stroke-opacity:1;marker-start:none;marker-end:none" />
    <ellipse
       ry="15.051776"
       rx="4.4281449"
       cy="115.68984"
       cx="16.185122"
       id="ellipse1637"
       style="color:#000000;overflow:visible;vector-effect:none;fill:#feebc6;fill-opacity:0.48581;stroke:#000000;stroke-width:0.140441;stroke-linecap:butt;stroke-linejoin:miter;stroke-miterlimit:4;stroke-dasharray:none;stroke-dashoffset:0;stroke-opacity:1;marker-start:none;marker-end:none" />
    <ellipse
       style="color:#000000;overflow:visible;vector-effect:none;fill:#feebc6;fill-opacity:0.48581;stroke:#000000;stroke-width:0.140441;stroke-linecap:butt;stroke-linejoin:miter;stroke-miterlimit:4;stroke-dasharray:none;stroke-dashoffset:0;stroke-opacity:1;marker-start:none;marker-end:none"
       id="ellipse1639"
       cx="16.185122"
       cy="115.68984"
       rx="2.7054303"
       ry="9.2833433" />
    <rect
       style="color:#000000;overflow:visible;vector-effect:none;fill:#feebc6;fill-opacity:0.48581;stroke:#000000;stroke-width:0.140441;stroke-linecap:butt;stroke-linejoin:miter;stroke-miterlimit:4;stroke-dasharray:none;stroke-dashoffset:0;stroke-opacity:1;marker-start:none;marker-end:none"
       id="rect1647"
       width="13.067559"
       height="5.7207274"
       x="16.185114"
       y="86.973984" />
    <path
       style="color:#000000;overflow:visible;vector-effect:none;fill:#feebc6;fill-opacity:0.48581;stroke:#000000;stroke-width:0.140441;stroke-linecap:butt;stroke-linejoin:miter;stroke-miterlimit:4;stroke-dasharray:none;stroke-dashoffset:0;stroke-opacity:1;marker-start:none;marker-end:none"
       d="M 42.460555,106.40649 16.185124,124.97318"
       id="path1653"
       inkscape:connector-curvature="0" />
    <path
       style="color:#000000;overflow:visible;vector-effect:none;fill:#feebc6;fill-opacity:0.48581;stroke:#000000;stroke-width:0.140441;stroke-linecap:butt;stroke-linejoin:miter;stroke-miterlimit:4;stroke-dasharray:none;stroke-dashoffset:0;stroke-opacity:1;marker-start:none;marker-end:none"
       d="m 16.185124,106.40649 26.275431,18.56669"
       id="path1655"
       inkscape:connector-curvature="0" />
    <path
       style="color:#000000;overflow:visible;vector-effect:none;fill:#feebc6;fill-opacity:0.48581;stroke:#000000;stroke-width:0.140441;stroke-linecap:butt;stroke-linejoin:miter;stroke-miterlimit:4;stroke-dasharray:none;stroke-dashoffset:0;stroke-opacity:1;marker-start:none;marker-end:none"
       d="m 16.185124,100.63806 c 8.749451,4.55739 17.508231,4.4086 26.275431,0"
       id="path1657"
       inkscape:connector-curvature="0"
       sodipodi:nodetypes="cc" />
    <path
       sodipodi:nodetypes="cc"
       inkscape:connector-curvature="0"
       id="path1659"
       d="m 42.460565,130.74161 c -8.74946,-4.55739 -17.50824,-4.4086 -26.275442,0"
       style="color:#000000;overflow:visible;vector-effect:none;fill:#feebc6;fill-opacity:0.48581;stroke:#000000;stroke-width:0.140441;stroke-linecap:butt;stroke-linejoin:miter;stroke-miterlimit:4;stroke-dasharray:none;stroke-dashoffset:0;stroke-opacity:1;marker-start:none;marker-end:none" />
    <g
       id="g1779"
       transform="translate(-77.113667,-142.17552)">
      <ellipse
         ry="4.0695376"
         rx="1.1502653"
         cy="257.86536"
         cx="119.57422"
         id="ellipse1635"
         style="color:#000000;overflow:visible;opacity:1;vector-effect:none;fill:#feebc6;fill-opacity:0.48581;stroke:#000000;stroke-width:0.140441;stroke-linecap:butt;stroke-linejoin:miter;stroke-miterlimit:4;stroke-dasharray:none;stroke-dashoffset:0;stroke-opacity:1;marker-start:none;marker-end:none" />
      <ellipse
         style="color:#000000;overflow:visible;opacity:1;vector-effect:none;fill:#feebc6;fill-opacity:0.48581;stroke:#000000;stroke-width:0.140441;stroke-linecap:butt;stroke-linejoin:miter;stroke-miterlimit:4;stroke-dasharray:none;stroke-dashoffset:0;stroke-opacity:1;marker-start:none;marker-end:none"
         id="ellipse1641"
         cx="93.298782"
         cy="257.86536"
         rx="1.1502653"
         ry="4.0695376" />
      <path
         sodipodi:nodetypes="cc"
         inkscape:connector-curvature="0"
         id="path1661"
         d="m 93.298781,253.79582 c 10.890479,2.72977 10.661529,5.44244 0,8.13907"
         style="color:#000000;overflow:visible;opacity:1;vector-effect:none;fill:#feebc6;fill-opacity:0.48581;stroke:#000000;stroke-width:0.140441;stroke-linecap:butt;stroke-linejoin:miter;stroke-miterlimit:4;stroke-dasharray:none;stroke-dashoffset:0;stroke-opacity:1;marker-start:none;marker-end:none" />
      <path
         style="color:#000000;overflow:visible;opacity:1;vector-effect:none;fill:#feebc6;fill-opacity:0.48581;stroke:#000000;stroke-width:0.140441;stroke-linecap:butt;stroke-linejoin:miter;stroke-miterlimit:4;stroke-dasharray:none;stroke-dashoffset:0;stroke-opacity:1;marker-start:none;marker-end:none"
         d="m 119.57423,253.79582 c -10.89048,2.72977 -10.66153,5.44244 0,8.13907"
         id="path1663"
         inkscape:connector-curvature="0"
         sodipodi:nodetypes="cc" />
    </g>
    <path
       id="path1681"
       style="color:#000000;overflow:visible;vector-effect:none;fill:#feebc6;fill-opacity:0.48581;stroke:#000000;stroke-width:0.140441;stroke-linecap:butt;stroke-linejoin:miter;stroke-miterlimit:4;stroke-dasharray:none;stroke-dashoffset:0;stroke-opacity:1;marker-start:none;marker-end:none"
       d="m 89.022192,85.910069 c -1.582022,0 -3.043872,-2.86885 -3.834885,-7.52588 -0.791012,-4.65704 -0.791012,-10.39474 0,-15.05178 0.791012,-4.65704 2.252862,-7.52589 3.834885,-7.52589 0.166505,0.0142 0.365284,0.0193 0.594871,0.13206 8.125397,3.99189 16.486087,4.02966 24.646317,0.28167 0.35132,-0.27877 0.68815,-0.41373 1.03425,-0.41373 2.4456,10e-6 4.42814,7.26809 4.42814,15.58095 0,8.31286 -1.98255,14.52259 -4.42814,14.5226 -0.23476,0 -0.46525,-0.0621 -0.73093,-0.20487 -8.49119,-4.42469 -16.57198,-3.90793 -24.991366,0.0846 -0.296552,0.14063 -0.461552,0.11908 -0.553142,0.12025 z"
       inkscape:connector-curvature="0"
       sodipodi:nodetypes="csscscssscsc" />
    <path
       style="color:#000000;overflow:visible;opacity:1;vector-effect:none;fill:none;fill-opacity:1;stroke:#000000;stroke-width:0.140441;stroke-linecap:butt;stroke-linejoin:miter;stroke-miterlimit:4;stroke-dasharray:none;stroke-dashoffset:0;stroke-opacity:1;marker-start:none;marker-end:none"
       id="ellipse1691"
       sodipodi:type="arc"
       sodipodi:cx="115.29762"
       sodipodi:cy="70.858292"
       sodipodi:rx="4.4281449"
       sodipodi:ry="15.051776"
       sodipodi:start="1.5707963"
       sodipodi:end="4.712389"
       sodipodi:open="true"
       sodipodi:arc-type="arc"
       d="m 115.29762,85.910068 a 4.4281449,15.051776 0 0 1 -3.83488,-7.525888 4.4281449,15.051776 0 0 1 0,-15.051776 4.4281449,15.051776 0 0 1 3.83488,-7.525888" />
    <path
       style="color:#000000;overflow:visible;vector-effect:none;fill:#feebc6;fill-opacity:0.48581;stroke:#000000;stroke-width:0.140441;stroke-linecap:butt;stroke-linejoin:miter;stroke-miterlimit:4;stroke-dasharray:none;stroke-dashoffset:0;stroke-opacity:1;marker-start:none;marker-end:none"
       d="m 89.0221,97.706929 a 2.7054302,9.2833432 0 0 0 -2.705261,9.283151 2.7054302,9.2833432 0 0 0 2.705261,9.28367 2.7054302,9.2833432 0 0 0 0.505913,-0.17053 v 0.006 l 12.631787,-9.11883 -12.600265,-9.098151 -0.0041,-0.003 v 10e-4 a 2.7054302,9.2833432 0 0 0 -0.5333,-0.18293 z"
       id="ellipse1733"
       inkscape:connector-curvature="0" />
    <path
       id="ellipse1753"
       style="color:#000000;overflow:visible;opacity:1;vector-effect:none;fill:none;fill-opacity:1;stroke:#000000;stroke-width:0.140441;stroke-linecap:butt;stroke-linejoin:miter;stroke-miterlimit:4;stroke-dasharray:1.05331, 1.05331;stroke-dashoffset:0;stroke-opacity:1;marker-start:none;marker-end:none"
       sodipodi:type="arc"
       sodipodi:cx="89.022186"
       sodipodi:cy="106.99022"
       sodipodi:rx="2.7054303"
       sodipodi:ry="9.2833433"
       sodipodi:start="4.712389"
       sodipodi:end="1.5707963"
       sodipodi:open="true"
       sodipodi:arc-type="arc"
       d="m 89.022186,97.706876 a 2.7054303,9.2833433 0 0 1 2.705431,9.283344 2.7054303,9.2833433 0 0 1 -2.705431,9.28334" />
    <path
       id="path1763"
       d="m 115.22744,97.706929 a 2.7054302,9.2833432 0 0 1 2.70526,9.283151 2.7054302,9.2833432 0 0 1 -2.70526,9.28367 2.7054302,9.2833432 0 0 1 -0.50592,-0.17053 v 0.006 l -12.63178,-9.11883 12.60026,-9.098151 0.004,-0.003 v 10e-4 a 2.7054302,9.2833432 0 0 1 0.5333,-0.18293 z"
       style="color:#000000;overflow:visible;vector-effect:none;fill:#feebc6;fill-opacity:0.48581;stroke:#000000;stroke-width:0.140441;stroke-linecap:butt;stroke-linejoin:miter;stroke-miterlimit:4;stroke-dasharray:none;stroke-dashoffset:0;stroke-opacity:1;marker-start:none;marker-end:none"
       inkscape:connector-curvature="0" />
    <path
       sodipodi:open="true"
       sodipodi:end="1.5707963"
       sodipodi:start="4.712389"
       sodipodi:ry="9.2833433"
       sodipodi:rx="2.7054303"
       sodipodi:cy="106.99022"
       sodipodi:cx="-115.22733"
       sodipodi:type="arc"
       style="color:#000000;overflow:visible;opacity:1;vector-effect:none;fill:none;fill-opacity:1;stroke:#000000;stroke-width:0.140441;stroke-linecap:butt;stroke-linejoin:miter;stroke-miterlimit:4;stroke-dasharray:none;stroke-dashoffset:0;stroke-opacity:1;marker-start:none;marker-end:none"
       id="path1765"
       transform="scale(-1,1)"
       sodipodi:arc-type="arc"
       d="m -115.22733,97.706876 a 2.7054303,9.2833433 0 0 1 2.70543,9.283344 2.7054303,9.2833433 0 0 1 -2.70543,9.28334" />
    <g
       id="g1822"
       transform="translate(-4.2765966,-239.08745)">
      <g
         id="g1808">
        <path
           style="color:#000000;overflow:visible;opacity:1;vector-effect:none;fill:#feebc6;fill-opacity:0.48581;stroke:#000000;stroke-width:0.5308;stroke-linecap:butt;stroke-linejoin:miter;stroke-miterlimit:4;stroke-dasharray:none;stroke-dashoffset:0;stroke-opacity:1;marker-start:none;marker-end:none"
           d="m 352.625,737.84961 a 4.3474595,15.38093 0 0 0 -4.34766,15.38086 4.3474595,15.38093 0 0 0 4.34766,15.38281 4.3474595,15.38093 0 0 0 0.55273,-0.14453 c 39.54871,-10.09687 40.3914,-20.25483 0.006,-30.47461 a 4.3474595,15.38093 0 0 0 -0.55859,-0.14453 z"
           transform="matrix(0.26458333,0,0,0.26458333,0,177)"
           id="ellipse1783"
           inkscape:connector-curvature="0" />
        <path
           id="ellipse1795"
           style="color:#000000;overflow:visible;opacity:1;vector-effect:none;fill:none;fill-opacity:1;stroke:#000000;stroke-width:0.140441;stroke-linecap:butt;stroke-linejoin:miter;stroke-miterlimit:4;stroke-dasharray:1.05331, 1.05331;stroke-dashoffset:0;stroke-opacity:1;marker-start:none;marker-end:none"
           sodipodi:type="arc"
           sodipodi:cx="93.298782"
           sodipodi:cy="376.29248"
           sodipodi:rx="1.1502653"
           sodipodi:ry="4.0695376"
           sodipodi:start="4.712389"
           sodipodi:end="1.5707963"
           sodipodi:open="true"
           sodipodi:arc-type="arc"
           d="m 93.298782,372.22294 a 1.1502653,4.0695376 0 0 1 1.150266,4.06954 1.1502653,4.0695376 0 0 1 -1.150266,4.06954" />
      </g>
      <g
         transform="rotate(180,106.43651,376.29248)"
         id="g1814">
        <path
           inkscape:connector-curvature="0"
           id="path1810"
           transform="matrix(0.26458333,0,0,0.26458333,0,177)"
           d="m 352.625,737.84961 a 4.3474595,15.38093 0 0 0 -4.34766,15.38086 4.3474595,15.38093 0 0 0 4.34766,15.38281 4.3474595,15.38093 0 0 0 0.55273,-0.14453 c 39.54871,-10.09687 40.3914,-20.25483 0.006,-30.47461 a 4.3474595,15.38093 0 0 0 -0.55859,-0.14453 z"
           style="color:#000000;overflow:visible;opacity:1;vector-effect:none;fill:#feebc6;fill-opacity:0.48581;stroke:#000000;stroke-width:0.5308;stroke-linecap:butt;stroke-linejoin:miter;stroke-miterlimit:4;stroke-dasharray:none;stroke-dashoffset:0;stroke-opacity:1;marker-start:none;marker-end:none" />
        <path
           sodipodi:open="true"
           sodipodi:end="1.5707963"
           sodipodi:start="4.712389"
           sodipodi:ry="4.0695376"
           sodipodi:rx="1.1502653"
           sodipodi:cy="376.29248"
           sodipodi:cx="93.298782"
           sodipodi:type="arc"
           style="color:#000000;overflow:visible;opacity:1;vector-effect:none;fill:none;fill-opacity:1;stroke:#000000;stroke-width:0.140441;stroke-linecap:butt;stroke-linejoin:miter;stroke-miterlimit:4;stroke-dasharray:none;stroke-dashoffset:0;stroke-opacity:1;marker-start:none;marker-end:none"
           id="path1812"
           sodipodi:arc-type="arc"
           d="m 93.298782,372.22294 a 1.1502653,4.0695376 0 0 1 1.150266,4.06954 1.1502653,4.0695376 0 0 1 -1.150266,4.06954" />
      </g>
    </g>
    <path
       sodipodi:open="true"
       sodipodi:end="4.712389"
       sodipodi:start="1.5707963"
       sodipodi:ry="15.051776"
       sodipodi:rx="4.4281449"
       sodipodi:cy="70.858292"
       sodipodi:cx="-89.022186"
       sodipodi:type="arc"
       id="path1858"
       style="color:#000000;overflow:visible;opacity:1;vector-effect:none;fill:none;fill-opacity:1;stroke:#000000;stroke-width:0.140441;stroke-linecap:butt;stroke-linejoin:miter;stroke-miterlimit:4;stroke-dasharray:1.05331, 1.05331;stroke-dashoffset:0;stroke-opacity:1;marker-start:none;marker-end:none"
       transform="scale(-1,1)"
       sodipodi:arc-type="arc"
       d="m -89.022186,85.910068 a 4.4281449,15.051776 0 0 1 -3.834886,-7.525888 4.4281449,15.051776 0 0 1 0,-15.051776 4.4281449,15.051776 0 0 1 3.834886,-7.525888" />
    <g
       id="g1925"
       transform="translate(-4.2415566,-233.4985)">
      <path
         inkscape:connector-curvature="0"
         style="color:#000000;overflow:visible;opacity:1;vector-effect:none;fill:#feebc6;fill-opacity:0.48581;stroke:#000000;stroke-width:0.140441;stroke-linecap:butt;stroke-linejoin:miter;stroke-miterlimit:4;stroke-dasharray:none;stroke-dashoffset:0;stroke-opacity:1;marker-start:none;marker-end:none"
         d="m 170.55703,336.79438 a 2.7054302,9.2833432 0 0 0 -2.70526,9.28315 2.7054302,9.2833432 0 0 0 2.70526,9.28367 2.7054302,9.2833432 0 0 0 0.50591,-0.17053 v 0.006 l 12.63179,-9.11883 -12.60027,-9.09815 -0.004,-0.003 v 10e-4 a 2.7054302,9.2833432 0 0 0 -0.5333,-0.18293 z"
         id="path1872" />
      <path
         id="path1874"
         style="color:#000000;overflow:visible;opacity:1;vector-effect:none;fill:none;fill-opacity:1;stroke:#000000;stroke-width:0.140441;stroke-linecap:butt;stroke-linejoin:miter;stroke-miterlimit:4;stroke-dasharray:1.05331, 1.05331;stroke-dashoffset:0;stroke-opacity:1;marker-start:none;marker-end:none"
         sodipodi:type="arc"
         sodipodi:cx="170.55713"
         sodipodi:cy="346.07767"
         sodipodi:rx="2.7054303"
         sodipodi:ry="9.2833433"
         sodipodi:start="4.712389"
         sodipodi:end="1.5707963"
         sodipodi:open="true"
         sodipodi:arc-type="arc"
         d="m 170.55713,336.79432 a 2.7054303,9.2833433 0 0 1 2.70543,9.28335 2.7054303,9.2833433 0 0 1 -2.70543,9.28334" />
      <path
         id="path1876"
         d="m 196.76237,336.79438 a 2.7054302,9.2833432 0 0 1 2.70526,9.28315 2.7054302,9.2833432 0 0 1 -2.70526,9.28367 2.7054302,9.2833432 0 0 1 -0.50592,-0.17053 v 0.006 l -12.63178,-9.11883 12.60026,-9.09815 0.004,-0.003 v 10e-4 a 2.7054302,9.2833432 0 0 1 0.5333,-0.18293 z"
         style="color:#000000;overflow:visible;opacity:1;vector-effect:none;fill:#feebc6;fill-opacity:0.48581;stroke:#000000;stroke-width:0.140441;stroke-linecap:butt;stroke-linejoin:miter;stroke-miterlimit:4;stroke-dasharray:none;stroke-dashoffset:0;stroke-opacity:1;marker-start:none;marker-end:none"
         inkscape:connector-curvature="0" />
      <path
         sodipodi:open="true"
         sodipodi:end="1.5707963"
         sodipodi:start="4.712389"
         sodipodi:ry="9.2833433"
         sodipodi:rx="2.7054303"
         sodipodi:cy="346.07767"
         sodipodi:cx="-196.76227"
         sodipodi:type="arc"
         style="color:#000000;overflow:visible;opacity:1;vector-effect:none;fill:none;fill-opacity:1;stroke:#000000;stroke-width:0.140441;stroke-linecap:butt;stroke-linejoin:miter;stroke-miterlimit:4;stroke-dasharray:none;stroke-dashoffset:0;stroke-opacity:1;marker-start:none;marker-end:none"
         id="path1878"
         transform="scale(-1,1)"
         sodipodi:arc-type="arc"
         d="m -196.76227,336.79432 a 2.7054303,9.2833433 0 0 1 2.70543,9.28335 2.7054303,9.2833433 0 0 1 -2.70543,9.28334" />
    </g>
    <g
       id="g1892"
       transform="translate(72.981632,-263.71321)">
      <g
         id="g1884">
        <path
           id="path1880"
           transform="matrix(0.26458333,0,0,0.26458333,0,177)"
           d="m 352.625,737.84961 a 4.3474595,15.38093 0 0 0 -4.34766,15.38086 4.3474595,15.38093 0 0 0 4.34766,15.38281 4.3474595,15.38093 0 0 0 0.55273,-0.14453 c 39.54871,-10.09687 40.3914,-20.25483 0.006,-30.47461 a 4.3474595,15.38093 0 0 0 -0.55859,-0.14453 z"
           style="color:#000000;overflow:visible;opacity:1;vector-effect:none;fill:#feebc6;fill-opacity:0.48581;stroke:#000000;stroke-width:0.5308;stroke-linecap:butt;stroke-linejoin:miter;stroke-miterlimit:4;stroke-dasharray:none;stroke-dashoffset:0;stroke-opacity:1;marker-start:none;marker-end:none"
           inkscape:connector-curvature="0" />
        <path
           sodipodi:open="true"
           sodipodi:end="1.5707963"
           sodipodi:start="4.712389"
           sodipodi:ry="4.0695376"
           sodipodi:rx="1.1502653"
           sodipodi:cy="376.29248"
           sodipodi:cx="93.298782"
           sodipodi:type="arc"
           style="color:#000000;overflow:visible;opacity:1;vector-effect:none;fill:none;fill-opacity:1;stroke:#000000;stroke-width:0.140441;stroke-linecap:butt;stroke-linejoin:miter;stroke-miterlimit:4;stroke-dasharray:1.05331, 1.05331;stroke-dashoffset:0;stroke-opacity:1;marker-start:none;marker-end:none"
           id="path1882"
           sodipodi:arc-type="arc"
           d="m 93.298782,372.22294 a 1.1502653,4.0695376 0 0 1 1.150266,4.06954 1.1502653,4.0695376 0 0 1 -1.150266,4.06954" />
      </g>
      <g
         id="g1890"
         transform="rotate(180,106.43651,376.29248)">
        <path
           style="color:#000000;overflow:visible;opacity:1;vector-effect:none;fill:#feebc6;fill-opacity:0.48581;stroke:#000000;stroke-width:0.5308;stroke-linecap:butt;stroke-linejoin:miter;stroke-miterlimit:4;stroke-dasharray:none;stroke-dashoffset:0;stroke-opacity:1;marker-start:none;marker-end:none"
           d="m 352.625,737.84961 a 4.3474595,15.38093 0 0 0 -4.34766,15.38086 4.3474595,15.38093 0 0 0 4.34766,15.38281 4.3474595,15.38093 0 0 0 0.55273,-0.14453 c 39.54871,-10.09687 40.3914,-20.25483 0.006,-30.47461 a 4.3474595,15.38093 0 0 0 -0.55859,-0.14453 z"
           transform="matrix(0.26458333,0,0,0.26458333,0,177)"
           id="path1886"
           inkscape:connector-curvature="0" />
        <path
           id="path1888"
           style="color:#000000;overflow:visible;opacity:1;vector-effect:none;fill:none;fill-opacity:1;stroke:#000000;stroke-width:0.140441;stroke-linecap:butt;stroke-linejoin:miter;stroke-miterlimit:4;stroke-dasharray:none;stroke-dashoffset:0;stroke-opacity:1;marker-start:none;marker-end:none"
           sodipodi:type="arc"
           sodipodi:cx="93.298782"
           sodipodi:cy="376.29248"
           sodipodi:rx="1.1502653"
           sodipodi:ry="4.0695376"
           sodipodi:start="4.712389"
           sodipodi:end="1.5707963"
           sodipodi:open="true"
           sodipodi:arc-type="arc"
           d="m 93.298782,372.22294 a 1.1502653,4.0695376 0 0 1 1.150266,4.06954 1.1502653,4.0695376 0 0 1 -1.150266,4.06954" />
      </g>
    </g>
    <g
       id="g1919"
       transform="translate(-4.2765966,-197.36668)">
      <path
         id="path1868"
         style="color:#000000;overflow:visible;opacity:1;vector-effect:none;fill:#feebc6;fill-opacity:0.48581;stroke:#000000;stroke-width:0.140441;stroke-linecap:butt;stroke-linejoin:miter;stroke-miterlimit:4;stroke-dasharray:none;stroke-dashoffset:0;stroke-opacity:1;marker-start:none;marker-end:none"
         d="m 170.55712,324.99752 c -1.58202,0 -3.04387,-2.86885 -3.83488,-7.52588 -0.79101,-4.65704 -0.79101,-10.39474 0,-15.05178 0.79101,-4.65704 2.25286,-7.52589 3.83488,-7.52589 0.16651,0.0142 0.36529,0.0193 0.59487,0.13206 8.1254,3.99189 16.48609,4.02966 24.64632,0.28167 0.35132,-0.27877 0.68815,-0.41373 1.03425,-0.41373 2.4456,10e-6 4.42814,7.26809 4.42814,15.58095 0,8.31286 -1.98255,14.52259 -4.42814,14.5226 -0.23476,0 -0.46525,-0.0621 -0.73093,-0.20487 -8.49119,-4.42469 -16.57198,-3.90793 -24.99137,0.0846 -0.29655,0.14063 -0.46155,0.11908 -0.55314,0.12025 z"
         inkscape:connector-curvature="0"
         sodipodi:nodetypes="csscscssscsc" />
      <path
         style="color:#000000;overflow:visible;opacity:1;vector-effect:none;fill:none;fill-opacity:1;stroke:#000000;stroke-width:0.140441;stroke-linecap:butt;stroke-linejoin:miter;stroke-miterlimit:4;stroke-dasharray:none;stroke-dashoffset:0;stroke-opacity:1;marker-start:none;marker-end:none"
         id="path1870"
         sodipodi:type="arc"
         sodipodi:cx="196.83257"
         sodipodi:cy="309.94574"
         sodipodi:rx="4.4281449"
         sodipodi:ry="15.051776"
         sodipodi:start="1.5707963"
         sodipodi:end="4.712389"
         sodipodi:open="true"
         sodipodi:arc-type="arc"
         d="m 196.83257,324.99752 a 4.4281449,15.051776 0 0 1 -3.83489,-7.52589 4.4281449,15.051776 0 0 1 0,-15.05178 4.4281449,15.051776 0 0 1 3.83489,-7.52589" />
      <path
         sodipodi:open="true"
         sodipodi:end="4.712389"
         sodipodi:start="1.5707963"
         sodipodi:ry="15.051776"
         sodipodi:rx="4.4281449"
         sodipodi:cy="309.94574"
         sodipodi:cx="-170.55713"
         sodipodi:type="arc"
         id="path1894"
         style="color:#000000;overflow:visible;opacity:1;vector-effect:none;fill:none;fill-opacity:1;stroke:#000000;stroke-width:0.140441;stroke-linecap:butt;stroke-linejoin:miter;stroke-miterlimit:4;stroke-dasharray:1.05331, 1.05331;stroke-dashoffset:0;stroke-opacity:1;marker-start:none;marker-end:none"
         transform="scale(-1,1)"
         sodipodi:arc-type="arc"
         d="m -170.55713,324.99752 a 4.4281449,15.051776 0 0 1 -3.83488,-7.52589 4.4281449,15.051776 0 0 1 0,-15.05178 4.4281449,15.051776 0 0 1 3.83488,-7.52589" />
    </g>
  </g>
</svg>
